{
  "source": "C:\\Users\\Peter\\Desktop\\stuff\\MIUN\\quantitative_research\\video_compression\\videos\\BVI-HD\\BVI-HD_CDVL_videos\\ORIG\\MartialArts_1920x1080_60fps.mp4",
  "output": "C:\\Users\\Peter\\Desktop\\stuff\\MIUN\\quantitative_research\\video_compression\\compressed_videos\\BVI-HD\\av1\\8\\MartialArts_1920x1080_60fps_av1.mkv",
  "codec": "av1",
  "ok": "Input #0, mov,mp4,m4a,3gp,3g2,mj2, from 'C:\\Users\\Peter\\Desktop\\stuff\\MIUN\\quantitative_research\\video_compression\\videos\\BVI-HD\\BVI-HD_CDVL_videos\\ORIG\\MartialArts_1920x1080_60fps.mp4':\n  Metadata:\n    major_brand     : isom\n    minor_version   : 512\n    compatible_brands: isomiso2avc1mp41\n    encoder         : Lavf54.28.101\n  Duration: 00:00:05.00, start: 0.000000, bitrate: 120609 kb/s\n  Stream #0:0[0x1](und): Video: h264 (High 4:4:4 Predictive) (avc1 / 0x31637661), yuv420p(progressive), 1920x1080, 120605 kb/s, 60 fps, 60 tbr, 60 tbn (default)\n    Metadata:\n      handler_name    : VideoHandler\n      vendor_id       : [0][0][0][0]\n[out#0/matroska @ 000001c977cd97c0] Codec AVOption b:a (set bitrate (in bits/s)) has not been used for any stream. The most likely reason is either wrong type (e.g. a video option with no video streams) or that it is a private option of some decoder which was not actually used for any stream.\nStream mapping:\n  Stream #0:0 -> #0:0 (h264 (native) -> av1 (libsvtav1))\nPress [q] to stop, [?] for help\nSvt[info]: -------------------------------------------\nSvt[info]: SVT [version]:\tSVT-AV1 Encoder Lib v3.1.0-19-g6ecfe8ec\nSvt[info]: SVT [build]  :\tGCC 15.2.0\t 64 bit\nSvt[info]: LIB Build date: Aug 17 2025 11:37:13\nSvt[info]: -------------------------------------------\nSvt[info]: Level of Parallelism: 5\nSvt[info]: Number of PPCS 93\nSvt[info]: [asm level on system : up to avx2]\nSvt[info]: [asm level selected : up to avx2]\nSvt[info]: -------------------------------------------\nSvt[info]: SVT [config]: main profile\ttier (auto)\tlevel (auto)\nSvt[info]: SVT [config]: width / height / fps numerator / fps denominator \t\t: 1920 / 1080 / 60 / 1\nSvt[info]: SVT [config]: bit-depth / color format \t\t\t\t\t: 8 / YUV420\nSvt[info]: SVT [config]: preset / tune / pred struct \t\t\t\t\t: 4 / PSNR / random access\nSvt[info]: SVT [config]: gop size / mini-gop size / key-frame type \t\t\t: 321 / 16 / key frame\nSvt[info]: SVT [config]: BRC mode / target bitrate (kbps)\t\t\t\t: VBR / 8000 \nSvt[info]: SVT [config]: AQ mode / Variance Boost \t\t\t\t\t: 2 / 0\nSvt[info]: SVT [config]: sharpness / luminance-based QP bias \t\t\t\t: 0 / 0\nSvt[info]: SVT [config]: QP scale compress strength \t\t\t\t\t: 0\nSvt[info]: -------------------------------------------\nOutput #0, matroska, to 'C:\\Users\\Peter\\Desktop\\stuff\\MIUN\\quantitative_research\\video_compression\\compressed_videos\\BVI-HD\\av1\\8\\MartialArts_1920x1080_60fps_av1.mkv':\n  Metadata:\n    major_brand     : isom\n    minor_version   : 512\n    compatible_brands: isomiso2avc1mp41\n    encoder         : Lavf62.3.100\n  Stream #0:0(und): Video: av1 (AV01 / 0x31305641), yuv420p(tv, progressive), 1920x1080, q=2-31, 8000 kb/s, 60 fps, 1k tbn (default)\n    Metadata:\n      encoder         : Lavc62.11.100 libsvtav1\n      handler_name    : VideoHandler\n      vendor_id       : [0][0][0][0]\n    Side data:\n      cpb: bitrate max/min/avg: 0/0/8000000 buffer size: 8000000 vbv_delay: N/A\nframe=    0 fps=0.0 q=0.0 size=       0KiB time=N/A bitrate=N/A speed=N/A elapsed=0:00:01.04    \nframe=    0 fps=0.0 q=0.0 size=       0KiB time=N/A bitrate=N/A speed=N/A elapsed=0:00:01.56    \nframe=    0 fps=0.0 q=0.0 size=       0KiB time=N/A bitrate=N/A speed=N/A elapsed=0:00:02.08    \nframe=    0 fps=0.0 q=0.0 size=       0KiB time=N/A bitrate=N/A speed=N/A elapsed=0:00:02.61    \nframe=    0 fps=0.0 q=0.0 size=       0KiB time=N/A bitrate=N/A speed=N/A elapsed=0:00:03.12    \nframe=    0 fps=0.0 q=0.0 size=       0KiB time=N/A bitrate=N/A speed=N/A elapsed=0:00:03.63    \nframe=    0 fps=0.0 q=0.0 size=       0KiB time=N/A bitrate=N/A speed=N/A elapsed=0:00:04.16    \nframe=    1 fps=0.2 q=2.0 size=       1KiB time=00:00:00.00 bitrate=N/A speed=   0x elapsed=0:00:04.70    \nframe=    1 fps=0.2 q=2.0 size=       1KiB time=00:00:00.00 bitrate=N/A speed=   0x elapsed=0:00:05.22    \nframe=    1 fps=0.2 q=2.0 size=       1KiB time=00:00:00.00 bitrate=N/A speed=   0x elapsed=0:00:05.73    \nframe=    1 fps=0.2 q=2.0 size=       1KiB time=00:00:00.00 bitrate=N/A speed=   0x elapsed=0:00:06.26    \nframe=    3 fps=0.4 q=17.0 size=       1KiB time=00:00:00.01 bitrate= 341.8kbits/s speed=0.00244x elapsed=0:00:06.81    \nframe=    5 fps=0.7 q=15.0 size=       1KiB time=00:00:00.06 bitrate=  85.4kbits/s speed=0.00905x elapsed=0:00:07.36    \nframe=    8 fps=1.0 q=16.0 size=       1KiB time=00:00:00.11 bitrate=  48.8kbits/s speed=0.0146x elapsed=0:00:07.96    \nframe=   10 fps=1.2 q=15.0 size=       1KiB time=00:00:00.15 bitrate=  38.0kbits/s speed=0.0176x elapsed=0:00:08.51    \nframe=   12 fps=1.3 q=15.0 size=       1KiB time=00:00:00.18 bitrate=  31.1kbits/s speed=0.0202x elapsed=0:00:09.05    \nframe=   16 fps=1.7 q=14.0 size=       1KiB time=00:00:00.25 bitrate=  22.8kbits/s speed=0.0261x elapsed=0:00:09.59    \nframe=   19 fps=1.9 q=15.0 size=       1KiB time=00:00:00.30 bitrate=  19.0kbits/s speed=0.0296x elapsed=0:00:10.11    \nframe=   21 fps=2.0 q=14.0 size=       1KiB time=00:00:00.33 bitrate=  17.1kbits/s speed=0.0314x elapsed=0:00:10.63    \nframe=   23 fps=2.1 q=13.0 size=       1KiB time=00:00:00.36 bitrate=  15.5kbits/s speed=0.0329x elapsed=0:00:11.14    \nframe=   26 fps=2.2 q=13.0 size=       1KiB time=00:00:00.41 bitrate=  13.7kbits/s speed=0.0357x elapsed=0:00:11.67    \nframe=   27 fps=2.2 q=13.0 size=       1KiB time=00:00:00.43 bitrate=  13.1kbits/s speed=0.0356x elapsed=0:00:12.18    \nframe=   31 fps=2.4 q=14.0 size=       1KiB time=00:00:00.50 bitrate=  11.4kbits/s speed=0.0394x elapsed=0:00:12.70    \nframe=   34 fps=2.6 q=9.0 size=       1KiB time=00:00:00.55 bitrate=  10.4kbits/s speed=0.0416x elapsed=0:00:13.22    \nframe=   36 fps=2.6 q=10.0 size=       1KiB time=00:00:00.58 bitrate=   9.8kbits/s speed=0.0424x elapsed=0:00:13.77    \nframe=   38 fps=2.7 q=12.0 size=       1KiB time=00:00:00.61 bitrate=   9.2kbits/s speed=0.0431x elapsed=0:00:14.31    \nframe=   39 fps=2.6 q=12.0 size=       1KiB time=00:00:00.63 bitrate=   9.0kbits/s speed=0.0425x elapsed=0:00:14.89    \nframe=   42 fps=2.7 q=11.0 size=       1KiB time=00:00:00.68 bitrate=   8.3kbits/s speed=0.0441x elapsed=0:00:15.50    \nframe=   44 fps=2.7 q=11.0 size=       1KiB time=00:00:00.71 bitrate=   7.9kbits/s speed=0.0447x elapsed=0:00:16.04    \nframe=   46 fps=2.8 q=13.0 size=       1KiB time=00:00:00.75 bitrate=   7.6kbits/s speed=0.045x elapsed=0:00:16.66    \nframe=   48 fps=2.8 q=12.0 size=       1KiB time=00:00:00.78 bitrate=   7.3kbits/s speed=0.0455x elapsed=0:00:17.21    \nframe=   51 fps=2.9 q=14.0 size=       1KiB time=00:00:00.83 bitrate=   6.8kbits/s speed=0.047x elapsed=0:00:17.74    \nframe=   53 fps=2.9 q=13.0 size=       1KiB time=00:00:00.86 bitrate=   6.6kbits/s speed=0.0474x elapsed=0:00:18.29    \nframe=   55 fps=2.9 q=13.0 size=       1KiB time=00:00:00.90 bitrate=   6.3kbits/s speed=0.0478x elapsed=0:00:18.81    \nframe=   56 fps=2.9 q=13.0 size=       1KiB time=00:00:00.91 bitrate=   6.2kbits/s speed=0.0473x elapsed=0:00:19.37    \nframe=   59 fps=3.0 q=14.0 size=       1KiB time=00:00:00.96 bitrate=   5.9kbits/s speed=0.0486x elapsed=0:00:19.90    \nframe=   62 fps=3.0 q=13.0 size=       1KiB time=00:00:01.01 bitrate=   5.6kbits/s speed=0.0497x elapsed=0:00:20.43    \nframe=   66 fps=3.1 q=13.0 size=       1KiB time=00:00:01.08 bitrate=   5.3kbits/s speed=0.0517x elapsed=0:00:20.96    \nframe=   68 fps=3.2 q=13.0 size=       1KiB time=00:00:01.11 bitrate=   5.1kbits/s speed=0.052x elapsed=0:00:21.48    \nframe=   70 fps=3.2 q=13.0 size=       1KiB time=00:00:01.15 bitrate=   5.0kbits/s speed=0.0523x elapsed=0:00:21.99    \nframe=   72 fps=3.2 q=13.0 size=       1KiB time=00:00:01.18 bitrate=   4.8kbits/s speed=0.0525x elapsed=0:00:22.52    \nframe=   75 fps=3.3 q=14.0 size=       1KiB time=00:00:01.23 bitrate=   4.6kbits/s speed=0.0535x elapsed=0:00:23.07    \nframe=   79 fps=3.3 q=13.0 size=       1KiB time=00:00:01.30 bitrate=   4.4kbits/s speed=0.0551x elapsed=0:00:23.58    \nframe=   82 fps=3.4 q=12.0 size=       1KiB time=00:00:01.35 bitrate=   4.2kbits/s speed=0.056x elapsed=0:00:24.09    \nframe=   85 fps=3.5 q=12.0 size=       1KiB time=00:00:01.40 bitrate=   4.1kbits/s speed=0.0568x elapsed=0:00:24.63    \nframe=   87 fps=3.5 q=13.0 size=       1KiB time=00:00:01.43 bitrate=   4.0kbits/s speed=0.057x elapsed=0:00:25.14    \nframe=   90 fps=3.5 q=12.0 size=       1KiB time=00:00:01.48 bitrate=   3.8kbits/s speed=0.0578x elapsed=0:00:25.66    \nframe=   92 fps=3.5 q=11.0 size=       1KiB time=00:00:01.51 bitrate=   3.8kbits/s speed=0.0579x elapsed=0:00:26.19    \nframe=   97 fps=3.6 q=1.0 size=       1KiB time=00:00:01.60 bitrate=   3.6kbits/s speed=0.0598x elapsed=0:00:26.74    \nframe=  100 fps=3.7 q=12.0 size=       1KiB time=00:00:01.65 bitrate=   3.5kbits/s speed=0.0605x elapsed=0:00:27.25    \nframe=  102 fps=3.7 q=12.0 size=       1KiB time=00:00:01.68 bitrate=   3.4kbits/s speed=0.0606x elapsed=0:00:27.79    \nframe=  104 fps=3.7 q=12.0 size=       1KiB time=00:00:01.71 bitrate=   3.3kbits/s speed=0.0607x elapsed=0:00:28.30    \nframe=  108 fps=3.7 q=11.0 size=       1KiB time=00:00:01.78 bitrate=   3.2kbits/s speed=0.0619x elapsed=0:00:28.82    \nframe=  112 fps=3.8 q=12.0 size=       1KiB time=00:00:01.85 bitrate=   3.1kbits/s speed=0.063x elapsed=0:00:29.37    \nframe=  116 fps=3.9 q=13.0 size=       1KiB time=00:00:01.91 bitrate=   3.0kbits/s speed=0.0641x elapsed=0:00:29.88    \nframe=  118 fps=3.9 q=13.0 size=       1KiB time=00:00:01.95 bitrate=   2.9kbits/s speed=0.0641x elapsed=0:00:30.40    \nframe=  122 fps=3.9 q=13.0 size=       1KiB time=00:00:02.01 bitrate=   2.8kbits/s speed=0.0652x elapsed=0:00:30.92    \nframe=  125 fps=4.0 q=13.0 size=       1KiB time=00:00:02.06 bitrate=   2.8kbits/s speed=0.0657x elapsed=0:00:31.45    \nframe=  130 fps=4.1 q=12.0 size=       1KiB time=00:00:02.15 bitrate=   2.6kbits/s speed=0.0672x elapsed=0:00:31.99    \nframe=  132 fps=4.1 q=9.0 size=       1KiB time=00:00:02.18 bitrate=   2.6kbits/s speed=0.0671x elapsed=0:00:32.51    \nframe=  135 fps=4.1 q=13.0 size=       1KiB time=00:00:02.23 bitrate=   2.6kbits/s speed=0.0676x elapsed=0:00:33.04    \nframe=  138 fps=4.1 q=13.0 size=       1KiB time=00:00:02.28 bitrate=   2.5kbits/s speed=0.068x elapsed=0:00:33.58    \nframe=  141 fps=4.1 q=14.0 size=       1KiB time=00:00:02.33 bitrate=   2.4kbits/s speed=0.0684x elapsed=0:00:34.11    \nframe=  146 fps=4.2 q=13.0 size=       1KiB time=00:00:02.41 bitrate=   2.4kbits/s speed=0.0698x elapsed=0:00:34.63    \nframe=  148 fps=4.2 q=13.0 size=       1KiB time=00:00:02.45 bitrate=   2.3kbits/s speed=0.0697x elapsed=0:00:35.15    \nframe=  150 fps=4.2 q=13.0 size=       1KiB time=00:00:02.48 bitrate=   2.3kbits/s speed=0.0696x elapsed=0:00:35.67    \nframe=  154 fps=4.3 q=14.0 size=       1KiB time=00:00:02.55 bitrate=   2.2kbits/s speed=0.0705x elapsed=0:00:36.18    \nframe=  156 fps=4.2 q=11.0 size=       1KiB time=00:00:02.56 bitrate=   2.2kbits/s speed=0.0699x elapsed=0:00:36.70    \nframe=  160 fps=4.3 q=15.0 size=       1KiB time=00:00:02.65 bitrate=   2.1kbits/s speed=0.0711x elapsed=0:00:37.25    \nframe=  163 fps=4.3 q=14.0 size=       1KiB time=00:00:02.70 bitrate=   2.1kbits/s speed=0.0715x elapsed=0:00:37.76    \nframe=  165 fps=4.3 q=13.0 size=       1KiB time=00:00:02.73 bitrate=   2.1kbits/s speed=0.0714x elapsed=0:00:38.29    \nframe=  167 fps=4.3 q=14.0 size=       1KiB time=00:00:02.76 bitrate=   2.1kbits/s speed=0.0713x elapsed=0:00:38.82    \nframe=  170 fps=4.3 q=15.0 size=       1KiB time=00:00:02.81 bitrate=   2.0kbits/s speed=0.0716x elapsed=0:00:39.36    \nframe=  172 fps=4.3 q=12.0 size=       1KiB time=00:00:02.85 bitrate=   2.0kbits/s speed=0.0715x elapsed=0:00:39.87    \nframe=  177 fps=4.4 q=2.0 size=       1KiB time=00:00:02.93 bitrate=   1.9kbits/s speed=0.0726x elapsed=0:00:40.39    \nframe=  179 fps=4.4 q=15.0 size=       1KiB time=00:00:02.96 bitrate=   1.9kbits/s speed=0.0725x elapsed=0:00:40.92    \nframe=  182 fps=4.4 q=16.0 size=       1KiB time=00:00:03.01 bitrate=   1.9kbits/s speed=0.0728x elapsed=0:00:41.43    \nframe=  183 fps=4.4 q=15.0 size=       1KiB time=00:00:03.03 bitrate=   1.9kbits/s speed=0.0723x elapsed=0:00:41.95    \nframe=  187 fps=4.4 q=15.0 size=       1KiB time=00:00:03.10 bitrate=   1.8kbits/s speed=0.073x elapsed=0:00:42.47    \nframe=  190 fps=4.4 q=16.0 size=       1KiB time=00:00:03.15 bitrate=   1.8kbits/s speed=0.0732x elapsed=0:00:43.01    \nframe=  194 fps=4.5 q=16.0 size=       1KiB time=00:00:03.21 bitrate=   1.8kbits/s speed=0.0739x elapsed=0:00:43.54    \nframe=  197 fps=4.5 q=13.0 size=       1KiB time=00:00:03.26 bitrate=   1.7kbits/s speed=0.0741x elapsed=0:00:44.06    \nframe=  199 fps=4.5 q=15.0 size=       1KiB time=00:00:03.30 bitrate=   1.7kbits/s speed=0.074x elapsed=0:00:44.57    \nframe=  202 fps=4.5 q=16.0 size=       1KiB time=00:00:03.35 bitrate=   1.7kbits/s speed=0.0742x elapsed=0:00:45.12    \nframe=  205 fps=4.5 q=13.0 size=       1KiB time=00:00:03.40 bitrate=   1.7kbits/s speed=0.0744x elapsed=0:00:45.68    \nframe=  209 fps=4.5 q=4.0 size=       1KiB time=00:00:03.46 bitrate=   1.6kbits/s speed=0.075x elapsed=0:00:46.21    \nframe=  213 fps=4.6 q=14.0 size=       1KiB time=00:00:03.53 bitrate=   1.6kbits/s speed=0.0756x elapsed=0:00:46.72    \nframe=  217 fps=4.6 q=10.0 size=       1KiB time=00:00:03.60 bitrate=   1.6kbits/s speed=0.0762x elapsed=0:00:47.23    \nframe=  217 fps=4.5 q=10.0 size=       1KiB time=00:00:03.60 bitrate=   1.6kbits/s speed=0.0754x elapsed=0:00:47.75    \nframe=  221 fps=4.6 q=13.0 size=       1KiB time=00:00:03.66 bitrate=   1.6kbits/s speed=0.0759x elapsed=0:00:48.28    \nframe=  225 fps=4.6 q=4.0 size=       1KiB time=00:00:03.73 bitrate=   1.5kbits/s speed=0.0765x elapsed=0:00:48.79    \nframe=  229 fps=4.6 q=14.0 size=       1KiB time=00:00:03.80 bitrate=   1.5kbits/s speed=0.0771x elapsed=0:00:49.31    \nframe=  233 fps=4.7 q=10.0 size=       1KiB time=00:00:03.86 bitrate=   1.5kbits/s speed=0.0776x elapsed=0:00:49.83    \nframe=  233 fps=4.6 q=10.0 size=       1KiB time=00:00:03.86 bitrate=   1.5kbits/s speed=0.0768x elapsed=0:00:50.34    \nframe=  237 fps=4.7 q=14.0 size=       1KiB time=00:00:03.93 bitrate=   1.4kbits/s speed=0.0773x elapsed=0:00:50.88    \nframe=  239 fps=4.6 q=15.0 size=       1KiB time=00:00:03.96 bitrate=   1.4kbits/s speed=0.0771x elapsed=0:00:51.43    \nframe=  241 fps=4.6 q=4.0 size=       1KiB time=00:00:04.00 bitrate=   1.4kbits/s speed=0.077x elapsed=0:00:51.96    \nframe=  245 fps=4.7 q=15.0 size=       1KiB time=00:00:04.06 bitrate=   1.4kbits/s speed=0.0774x elapsed=0:00:52.50    \nframe=  247 fps=4.7 q=16.0 size=       1KiB time=00:00:04.10 bitrate=   1.4kbits/s speed=0.0773x elapsed=0:00:53.02    \nframe=  249 fps=4.6 q=11.0 size=       1KiB time=00:00:04.13 bitrate=   1.4kbits/s speed=0.0772x elapsed=0:00:53.55    \nframe=  249 fps=4.6 q=11.0 size=       1KiB time=00:00:04.13 bitrate=   1.4kbits/s speed=0.0764x elapsed=0:00:54.08    \nframe=  251 fps=4.6 q=16.0 size=       1KiB time=00:00:04.16 bitrate=   1.4kbits/s speed=0.0762x elapsed=0:00:54.65    \nframe=  253 fps=4.6 q=14.0 size=       1KiB time=00:00:04.20 bitrate=   1.4kbits/s speed=0.076x elapsed=0:00:55.23    \nframe=  255 fps=4.6 q=15.0 size=       1KiB time=00:00:04.23 bitrate=   1.3kbits/s speed=0.0759x elapsed=0:00:55.79    \nframe=  257 fps=4.6 q=4.0 size=       1KiB time=00:00:04.26 bitrate=   1.3kbits/s speed=0.0758x elapsed=0:00:56.31    \nframe=  259 fps=4.6 q=15.0 size=       1KiB time=00:00:04.30 bitrate=   1.3kbits/s speed=0.0757x elapsed=0:00:56.83    \nframe=  261 fps=4.5 q=13.0 size=       1KiB time=00:00:04.33 bitrate=   1.3kbits/s speed=0.0755x elapsed=0:00:57.36    \nframe=  265 fps=4.6 q=11.0 size=       1KiB time=00:00:04.40 bitrate=   1.3kbits/s speed=0.076x elapsed=0:00:57.91    \nframe=  265 fps=4.5 q=11.0 size=       1KiB time=00:00:04.40 bitrate=   1.3kbits/s speed=0.0753x elapsed=0:00:58.44    \nframe=  265 fps=4.5 q=11.0 size=       1KiB time=00:00:04.40 bitrate=   1.3kbits/s speed=0.0745x elapsed=0:00:59.02    \nframe=  269 fps=4.5 q=15.0 size=       1KiB time=00:00:04.46 bitrate=   1.3kbits/s speed=0.075x elapsed=0:00:59.55    \nframe=  271 fps=4.5 q=16.0 size=       1KiB time=00:00:04.50 bitrate=   1.3kbits/s speed=0.0749x elapsed=0:01:00.10    \nframe=  275 fps=4.5 q=19.0 size=       1KiB time=00:00:04.56 bitrate=   1.2kbits/s speed=0.0753x elapsed=0:01:00.65    \nframe=  277 fps=4.5 q=20.0 size=       1KiB time=00:00:04.60 bitrate=   1.2kbits/s speed=0.0752x elapsed=0:01:01.20    \nframe=  281 fps=4.6 q=14.0 size=       1KiB time=00:00:04.66 bitrate=   1.2kbits/s speed=0.0756x elapsed=0:01:01.74    \nframe=  281 fps=4.5 q=14.0 size=       1KiB time=00:00:04.66 bitrate=   1.2kbits/s speed=0.0749x elapsed=0:01:02.27    \nframe=  283 fps=4.5 q=19.0 size=       1KiB time=00:00:04.70 bitrate=   1.2kbits/s speed=0.0748x elapsed=0:01:02.79    \nframe=  285 fps=4.5 q=20.0 size=       1KiB time=00:00:04.73 bitrate=   1.2kbits/s speed=0.0747x elapsed=0:01:03.33    \nframe=  293 fps=4.6 q=14.0 size=       1KiB time=00:00:04.86 bitrate=   1.2kbits/s speed=0.0762x elapsed=0:01:03.86    \n[out#0/matroska @ 000001c977cd97c0] video:4516KiB audio:0KiB subtitle:0KiB other streams:0KiB global headers:0KiB muxing overhead: 0.046881%\nframe=  300 fps=4.7 q=22.0 Lsize=    4518KiB time=00:00:04.98 bitrate=7427.4kbits/s speed=0.0776x elapsed=0:01:04.24    \n",
  "seconds": 64.90152072906494,
  "probe_out": {}
}